<svg id="Layer_2" data-name="Layer 2" xmlns="http://www.w3.org/2000/svg" viewBox="0 0 363.77 363.77">
  <defs>
    <style>
      .cls-1 {
        fill: #1a202c;
      }
    </style>
  </defs>
  <g>
    <g id="_Radial_Repeat_" data-name="&lt;Radial Repeat&gt;">
      <path class="cls-1" d="M76.44,179.34c-2.43,36.79-5.35,94.9-6,107.16,0,.47,0,.93-.08,1.39-1.51,27.88-3,34.11-.34,45.69a71.38,71.38,0,0,0,11,24.91c2.89,3.89,14.15,18.53,34,22.45,12.46,2.47,22.44-.45,29.34-2.56,8.8-2.69,21-7.82,44.74-30.47,14.82-14.17,23.21-24.27,43.17-47.2,12.45-14.3,22.73-25.93,29.47-33.52a2.32,2.32,0,0,1,3.39-.09l6.34,6.34a2.34,2.34,0,0,0,4-1.37q3-24,5.92-48a2.34,2.34,0,0,0-2.67-2.6l-48.25,7.3a2.34,2.34,0,0,0-1.28,4l6.51,6.25a2.35,2.35,0,0,1,.16,3.19c-13,15.53-23.19,28.16-29.92,36.54h0c-6.22,7.44-18.8,24.24-44.11,48-9.2,8.63-14.52,13-22.62,15.39-7.68,2.22-12.84,1.13-14.8.61a21.76,21.76,0,0,1-11.8-7.17c-6.13-7.68-3.77-19.82-4.1-19.82-.12,0,8.27-110.3,8.31-110.85a2.07,2.07,0,0,0-.06-.68,2.34,2.34,0,0,0-1.07-1.45Z" transform="translate(-18.11 -18.11)"/>
    </g>
    <g id="_Radial_Repeat_2" data-name="&lt;Radial Repeat&gt;">
      <path class="cls-1" d="M220.66,76.44c-36.79-2.43-94.9-5.35-107.16-6l-1.39-.08C84.22,68.85,78,67.34,66.42,70A71.38,71.38,0,0,0,41.51,81C37.62,83.89,23,95.15,19.05,115c-2.46,12.46.46,22.44,2.57,29.34,2.69,8.8,7.81,21,30.47,44.74,14.17,14.82,24.27,23.21,47.2,43.17,14.3,12.45,25.93,22.73,33.52,29.47a2.32,2.32,0,0,1,.09,3.39l-6.34,6.34a2.34,2.34,0,0,0,1.37,4l48,5.92a2.34,2.34,0,0,0,2.6-2.67q-3.64-24.13-7.3-48.25a2.34,2.34,0,0,0-4-1.28L161,235.61a2.35,2.35,0,0,1-3.19.16c-15.53-13-28.16-23.19-36.54-29.92h0c-7.44-6.22-24.24-18.8-48-44.11-8.63-9.2-13-14.52-15.39-22.62-2.22-7.68-1.13-12.84-.62-14.8s2.11-7.76,7.18-11.8c7.68-6.13,19.82-3.77,19.81-4.1,0-.12,110.31,8.27,110.86,8.31a2.09,2.09,0,0,0,.68-.06,2.34,2.34,0,0,0,1.45-1.07Z" transform="translate(-18.11 -18.11)"/>
    </g>
    <g id="_Radial_Repeat_3" data-name="&lt;Radial Repeat&gt;">
      <path class="cls-1" d="M323.56,220.66c2.43-36.79,5.35-94.9,6-107.16,0-.47.05-.93.08-1.39,1.51-27.89,3-34.11.34-45.69a71.38,71.38,0,0,0-11-24.91c-2.89-3.89-14.15-18.53-34-22.46-12.46-2.46-22.44.46-29.34,2.57-8.8,2.69-21,7.81-44.74,30.47-14.82,14.17-23.21,24.27-43.17,47.2-12.45,14.3-22.73,25.93-29.47,33.52a2.32,2.32,0,0,1-3.39.09l-6.34-6.34a2.34,2.34,0,0,0-4,1.37q-3,24-5.92,48a2.34,2.34,0,0,0,2.67,2.6l48.25-7.3a2.34,2.34,0,0,0,1.28-4L164.39,161a2.35,2.35,0,0,1-.16-3.19c13-15.53,23.19-28.16,29.92-36.54h0c6.22-7.44,18.8-24.24,44.11-48,9.2-8.63,14.52-13,22.62-15.39,7.68-2.22,12.84-1.13,14.8-.62,2.11.56,7.76,2.11,11.8,7.18,6.13,7.68,3.77,19.82,4.1,19.81.12,0-8.27,110.31-8.31,110.86a2.09,2.09,0,0,0,.06.68,2.34,2.34,0,0,0,1.07,1.45Z" transform="translate(-18.11 -18.11)"/>
    </g>
    <g id="_Radial_Repeat_4" data-name="&lt;Radial Repeat&gt;">
      <path class="cls-1" d="M179.34,323.56c36.79,2.43,94.9,5.35,107.16,6l1.39.08c27.88,1.51,34.11,3,45.69.34a71.38,71.38,0,0,0,24.91-11c3.89-2.89,18.53-14.15,22.45-34,2.47-12.46-.45-22.44-2.56-29.34-2.69-8.8-7.82-21-30.47-44.74-14.17-14.82-24.27-23.21-47.2-43.17-14.3-12.45-25.93-22.73-33.52-29.47a2.32,2.32,0,0,1-.09-3.39l6.34-6.34a2.34,2.34,0,0,0-1.37-4l-48-5.92a2.34,2.34,0,0,0-2.6,2.67q3.64,24.13,7.3,48.25a2.34,2.34,0,0,0,4,1.28l6.25-6.51a2.35,2.35,0,0,1,3.19-.16c15.53,13,28.16,23.19,36.54,29.92h0c7.44,6.22,24.24,18.8,48,44.11,8.63,9.2,13,14.52,15.39,22.62,2.22,7.68,1.13,12.84.61,14.8a21.76,21.76,0,0,1-7.17,11.8c-7.68,6.13-19.82,3.77-19.82,4.1,0,.12-110.3-8.27-110.85-8.31a2.07,2.07,0,0,0-.68.06,2.34,2.34,0,0,0-1.45,1.07Z" transform="translate(-18.11 -18.11)"/>
    </g>
  </g>
</svg>
