<svg id="Layer_2" data-name="Layer 2" xmlns="http://www.w3.org/2000/svg" viewBox="0 0 297.98 297.98">
  <g>
    <g id="_Radial_Repeat_" data-name="&lt;Radial Repeat&gt;">
      <path d="M98.35,183c-2,30.27-4.4,78.07-4.93,88.16,0,.38,0,.77-.07,1.14-1.24,22.94-2.48,28.06-.28,37.59a51.49,51.49,0,0,0,9,20.49c10.29,13.51,25.28,17.33,30.89,18.44l.25,0a63.75,63.75,0,0,0,20.94-2.12c9-2.5,18.21-7.28,36.8-25.06,12.2-11.66,19.09-20,35.52-38.84,10.24-11.76,18.7-21.33,24.24-27.57a1.91,1.91,0,0,1,2.79-.07l5.22,5.21a1.91,1.91,0,0,0,3.26-1.12q2.43-19.76,4.87-39.5a1.93,1.93,0,0,0-2.2-2.14l-39.69,6a1.92,1.92,0,0,0-1.05,3.29l5.35,5.14a1.93,1.93,0,0,1,.14,2.63c-10.67,12.77-19.08,23.16-24.62,30.06h0c-5.11,6.12-15.46,19.93-36.28,39.45-7.58,7.1-11.95,10.73-18.61,12.66-6.32,1.83-10.56.93-12.18.5a17.87,17.87,0,0,1-9.71-5.9c-5-6.32-3.1-16.31-3.37-16.3-.1,0,6.81-90.74,6.84-91.19a2.24,2.24,0,0,0-.05-.56,1.92,1.92,0,0,0-.89-1.2Z" transform="translate(-51.01 -51.01)"/>
    </g>
    <g id="_Radial_Repeat_2" data-name="&lt;Radial Repeat&gt;">
      <path d="M217,98.35c-30.27-2-78.07-4.4-88.16-4.93l-1.14-.07c-22.94-1.24-28.06-2.48-37.59-.28a51.49,51.49,0,0,0-20.49,9C56.11,112.39,52.29,127.38,51.17,133l0,.25a63.75,63.75,0,0,0,2.12,20.94c2.5,9,7.28,18.21,25.06,36.8,11.66,12.2,20,19.09,38.84,35.52,11.76,10.24,21.33,18.7,27.57,24.24a1.91,1.91,0,0,1,.07,2.79l-5.21,5.22a1.91,1.91,0,0,0,1.12,3.26l39.5,4.87a1.93,1.93,0,0,0,2.14-2.2q-3-19.85-6-39.69a1.92,1.92,0,0,0-3.29-1.05l-5.14,5.35a1.93,1.93,0,0,1-2.63.14c-12.77-10.67-23.16-19.08-30.06-24.62h0c-6.12-5.11-19.93-15.46-39.45-36.28C88.67,161,85,156.58,83.11,149.92c-1.83-6.32-.93-10.56-.51-12.18A18,18,0,0,1,88.5,128c6.33-5,16.32-3.1,16.31-3.37,0-.1,90.74,6.81,91.19,6.84a2.24,2.24,0,0,0,.56-.05,1.92,1.92,0,0,0,1.2-.89Z" transform="translate(-51.01 -51.01)"/>
    </g>
    <g id="_Radial_Repeat_3" data-name="&lt;Radial Repeat&gt;">
      <path d="M301.65,217c2-30.27,4.4-78.07,4.93-88.16,0-.38,0-.77.07-1.14,1.24-22.94,2.48-28.06.28-37.59a51.49,51.49,0,0,0-9-20.49C287.61,56.11,272.62,52.29,267,51.17l-.25,0a63.75,63.75,0,0,0-20.94,2.12c-9,2.5-18.21,7.28-36.8,25.06-12.2,11.66-19.09,20-35.52,38.84-10.24,11.76-18.7,21.33-24.24,27.57a1.91,1.91,0,0,1-2.79.07l-5.22-5.21a1.91,1.91,0,0,0-3.26,1.12q-2.44,19.75-4.87,39.5a1.93,1.93,0,0,0,2.2,2.14l39.69-6a1.92,1.92,0,0,0,1.05-3.29l-5.35-5.14a1.93,1.93,0,0,1-.14-2.63c10.67-12.77,19.08-23.16,24.62-30.06h0c5.11-6.12,15.46-19.93,36.28-39.45,7.58-7.1,11.95-10.73,18.61-12.66,6.32-1.83,10.56-.93,12.18-.51A18,18,0,0,1,272,88.5c5,6.33,3.1,16.32,3.37,16.31.1,0-6.81,90.74-6.84,91.19a2.24,2.24,0,0,0,.05.56,1.94,1.94,0,0,0,.88,1.2Z" transform="translate(-51.01 -51.01)"/>
    </g>
    <g id="_Radial_Repeat_4" data-name="&lt;Radial Repeat&gt;">
      <path d="M183,301.65c30.27,2,78.07,4.4,88.16,4.93l1.14.07c22.94,1.24,28.06,2.48,37.59.28a51.49,51.49,0,0,0,20.49-9c13.51-10.29,17.33-25.28,18.44-30.89a1.87,1.87,0,0,0,0-.25,63.75,63.75,0,0,0-2.12-20.94c-2.5-9-7.28-18.21-25.06-36.8-11.66-12.2-20-19.09-38.84-35.52-11.76-10.24-21.33-18.7-27.57-24.24a1.91,1.91,0,0,1-.07-2.79l5.21-5.22a1.91,1.91,0,0,0-1.12-3.26l-39.5-4.87a1.93,1.93,0,0,0-2.14,2.2q3,19.85,6,39.69a1.92,1.92,0,0,0,3.29,1.05l5.14-5.35a1.93,1.93,0,0,1,2.63-.14c12.77,10.67,23.16,19.08,30.06,24.62h0c6.12,5.11,19.93,15.46,39.45,36.28,7.1,7.58,10.73,11.95,12.66,18.61,1.83,6.32.93,10.56.5,12.18a17.87,17.87,0,0,1-5.9,9.71c-6.32,5-16.31,3.1-16.3,3.37,0,.1-90.74-6.81-91.19-6.84a2.24,2.24,0,0,0-.56.05,1.94,1.94,0,0,0-1.2.88Q192.63,285.54,183,301.65Z" transform="translate(-51.01 -51.01)"/>
    </g>
  </g>
</svg>
